<?xml version="1.0" encoding="UTF-8" standalone="no"?>
<!-- Generator: Adobe Illustrator 16.0.0, SVG Export Plug-In . SVG Version: 6.00 Build 0)  -->

<svg
   xmlns:dc="http://purl.org/dc/elements/1.1/"
   xmlns:cc="http://creativecommons.org/ns#"
   xmlns:rdf="http://www.w3.org/1999/02/22-rdf-syntax-ns#"
   xmlns:svg="http://www.w3.org/2000/svg"
   xmlns="http://www.w3.org/2000/svg"
   xmlns:sodipodi="http://sodipodi.sourceforge.net/DTD/sodipodi-0.dtd"
   xmlns:inkscape="http://www.inkscape.org/namespaces/inkscape"
   version="1.1"
   id="svg2"
   x="0px"
   y="0px"
   width="142.89139"
   height="151.65886"
   viewBox="0 0 142.89139 151.65887"
   enable-background="new 0 0 195.183 152.025"
   xml:space="preserve"
   inkscape:version="0.48.2 r9819"
   sodipodi:docname="pcb-arduino-shield-short.svg"><metadata
   id="metadata17"><rdf:RDF><cc:Work
       rdf:about=""><dc:format>image/svg+xml</dc:format><dc:type
         rdf:resource="http://purl.org/dc/dcmitype/StillImage" /><dc:title></dc:title></cc:Work></rdf:RDF></metadata><defs
   id="defs15">
	
	
		
	
		
	
		
</defs><sodipodi:namedview
   pagecolor="#ffffff"
   bordercolor="#666666"
   borderopacity="1"
   objecttolerance="10"
   gridtolerance="10"
   guidetolerance="10"
   inkscape:pageopacity="0"
   inkscape:pageshadow="2"
   inkscape:window-width="1164"
   inkscape:window-height="791"
   id="namedview13"
   showgrid="false"
   inkscape:document-units="mm"
   fit-margin-top="0"
   fit-margin-left="0"
   fit-margin-right="0"
   fit-margin-bottom="0"
   inkscape:zoom="3.1047526"
   inkscape:cx="14.906493"
   inkscape:cy="67.886459"
   inkscape:window-x="66"
   inkscape:window-y="0"
   inkscape:window-maximized="0"
   inkscape:current-layer="svg2" />
<g
   id="board"><path
     id="boardoutline"
     d="m 130.90239,0.51725 4.307,4.304 0,32.276 7.182,7.172 0,92.526 -7.182,7.172 0,4.35 c 0.164,1.396 -0.838,2.66 -2.234,2.824 -0.191,0.021 -0.395,0.021 -0.592,0 l -128.3542438,0 c -1.397,0.164 -2.663,-0.836 -2.827,-2.229 -0.023,-0.197 -0.023,-0.396 0,-0.596 l 0,-144.975 c -0.163,-1.397 0.838,-2.662 2.235,-2.824 0.197,-0.023 0.396,-0.023 0.592,0 l 126.8732438,0"
     inkscape:connector-curvature="0"
     style="fill:#338040;fill-opacity:0.5"
     sodipodi:nodetypes="cccccccccccccccc" /><rect
     id="pinguide1"
     x="3.4597757"
     y="4.3042502"
     width="128.62862"
     height="6.4000001"
     style="fill:none;stroke:#338040;stroke-width:1.5;stroke-opacity:0.5" /></g><rect
   style="fill:none;stroke:#338040;stroke-width:1.5;stroke-opacity:0.5"
   height="6.3990002"
   width="107.78"
   y="140.97025"
   x="24.227385"
   id="pinguide2" />
<g
   id="silkscreen"
   transform="translate(-52.305613,-0.30075)">
	<path
   id="outline"
   stroke-miterlimit="10"
   d="m 183.208,0.818 4.307,4.304 0,32.276 7.182,7.172 0,92.526 -7.182,7.172 0,4.35 c 0.164,1.396 -0.838,2.66 -2.234,2.824 -0.191,0.021 -0.395,0.021 -0.592,0 l -129.038998,0 c -1.397,0.164 -2.663,-0.836 -2.827,-2.229 -0.023,-0.197 -0.023,-0.396 0,-0.596 l 0,-144.975 c -0.163,-1.397 0.838,-2.662 2.235,-2.824 0.197,-0.023 0.396,-0.023 0.592,0 l 127.557998,0"
   inkscape:connector-curvature="0"
   style="fill:none;stroke:#ffffff;stroke-linecap:round;stroke-linejoin:round;stroke-miterlimit:10"
   sodipodi:nodetypes="cccccccccccccccc" />
</g>
<g
   id="silkscreen0"
   transform="translate(-52.305613,-0.30075)">
	<path
   id="path11"
   stroke-miterlimit="10"
   d="m 183.208,0.818 4.307,4.304 0,32.276 7.182,7.172 0,92.526 -7.182,7.172 0,4.35 c 0.164,1.396 -0.838,2.66 -2.234,2.824 -0.191,0.021 -0.395,0.021 -0.592,0 l -128.860934,0 c -1.397,0.164 -2.663,-0.836 -2.827,-2.229 -0.023,-0.197 -0.023,-0.396 0,-0.596 l 0,-144.975 c -0.163,-1.397 0.838,-2.662 2.235,-2.824 0.197,-0.023 0.396,-0.023 0.592,0 l 127.379934,0"
   inkscape:connector-curvature="0"
   style="fill:none;stroke:#bbbbcc;stroke-linecap:round;stroke-linejoin:round;stroke-miterlimit:10"
   sodipodi:nodetypes="cccccccccccccccc" />
</g>
</svg>