<?xml version="1.0" encoding="UTF-8" standalone="no"?>
<!-- Created with Fritzing (http://www.fritzing.org/) -->

<svg
   xmlns:dc="http://purl.org/dc/elements/1.1/"
   xmlns:cc="http://creativecommons.org/ns#"
   xmlns:rdf="http://www.w3.org/1999/02/22-rdf-syntax-ns#"
   xmlns:svg="http://www.w3.org/2000/svg"
   xmlns="http://www.w3.org/2000/svg"
   xmlns:sodipodi="http://sodipodi.sourceforge.net/DTD/sodipodi-0.dtd"
   xmlns:inkscape="http://www.inkscape.org/namespaces/inkscape"
   width="173.05673"
   x="0in"
   version="1.2"
   y="0in"
   height="188.99998"
   viewBox="0 0 138.44516 151.2"
   id="svg2"
   inkscape:version="0.48.2 r9819"
   sodipodi:docname="Arduino_Shield_Short_pcb.svg">
  <metadata
     id="metadata361">
    <rdf:RDF>
      <cc:Work
         rdf:about="">
        <dc:format>image/svg+xml</dc:format>
        <dc:type
           rdf:resource="http://purl.org/dc/dcmitype/StillImage" />
      </cc:Work>
    </rdf:RDF>
  </metadata>
  <defs
     id="defs359" />
  <sodipodi:namedview
     pagecolor="#dfdfdf"
     bordercolor="#666666"
     borderopacity="1"
     objecttolerance="10"
     gridtolerance="10"
     guidetolerance="10"
     inkscape:pageopacity="1"
     inkscape:pageshadow="2"
     inkscape:window-width="1140"
     inkscape:window-height="685"
     id="namedview357"
     showgrid="false"
     inkscape:document-units="mm"
     inkscape:zoom="2.4708997"
     inkscape:cx="41.021115"
     inkscape:cy="93.096074"
     inkscape:window-x="344"
     inkscape:window-y="2"
     inkscape:window-maximized="0"
     inkscape:current-layer="svg2"
     showguides="true"
     inkscape:guide-bbox="true"
     fit-margin-top="0"
     fit-margin-left="0"
     fit-margin-right="0"
     fit-margin-bottom="0" />
  <desc
     id="desc4">Fritzing footprint generated by brd2svg</desc>
  <g
     id="silkscreen">
    <path
       d="m 0.28781714,0.28799999 126.02239286,0 4.668,4.66217001 0,31.91793 7.179,7.1726 0,92.5263 -7.179,7.172 0,7.173 -130.69039286,0 0,-150.62400001 M 126.85321,50.4 c 0,2.299646 2.09235,4.391998 4.392,4.391998 2.29965,0 4.392,-2.092352 4.392,-4.391998 0,-2.299646 -2.09235,-4.391998 -4.392,-4.391998 -2.29965,0 -4.392,2.092352 -4.392,4.391998 z m 0,79.2 c 0,2.29965 2.09235,4.392 4.392,4.392 2.29965,0 4.392,-2.09235 4.392,-4.392 0,-2.29965 -2.09235,-4.392 -4.392,-4.392 -2.29965,0 -4.392,2.09235 -4.392,4.392 z"
       id="path7"
       inkscape:connector-curvature="0"
       style="fill:none;stroke:#ffffff;stroke-width:0.57599998"
       sodipodi:nodetypes="ccccccccccssssssssss" />
  </g>
  <g
     style="stroke-width:0"
     id="g9"
     transform="translate(-72.811788,-1.2397749e-8)">
    <title
       id="title11">element:AD</title>
    <g
       style="stroke-width:0"
       id="g13">
      <title
         id="title15">package:1X06</title>
    </g>
  </g>
  <g
     style="stroke-width:0"
     id="g17"
     transform="translate(-72.811788,-1.2397749e-8)">
    <title
       id="title19">element:IC1</title>
    <g
       style="stroke-width:0"
       id="g21">
      <title
         id="title23">package:SOT223</title>
    </g>
  </g>
  <g
     style="stroke-width:0"
     id="g25"
     transform="translate(-72.811788,-1.2397749e-8)">
    <title
       id="title27">element:IC2</title>
    <g
       style="stroke-width:0"
       id="g29">
      <title
         id="title31">package:SOT223</title>
    </g>
  </g>
  <g
     style="stroke-width:0"
     id="g33"
     transform="translate(-72.811788,-1.2397749e-8)">
    <title
       id="title35">element:IOH</title>
    <g
       style="stroke-width:0"
       id="g37">
      <title
         id="title39">package:1X08</title>
    </g>
  </g>
  <g
     style="stroke-width:0"
     id="g41"
     transform="translate(-72.811788,-1.2397749e-8)">
    <title
       id="title43">element:IOL</title>
    <g
       style="stroke-width:0"
       id="g45">
      <title
         id="title47">package:1X08</title>
    </g>
  </g>
  <g
     style="stroke-width:0"
     id="g49"
     transform="translate(-72.811788,-1.2397749e-8)">
    <title
       id="title51">element:J1</title>
    <g
       style="stroke-width:0"
       id="g53">
      <title
         id="title55">package:MAGJACK</title>
    </g>
  </g>
  <g
     style="stroke-width:0"
     id="g57"
     transform="translate(-72.811788,-1.2397749e-8)">
    <title
       id="title59">element:J2</title>
    <g
       style="stroke-width:0"
       id="g61">
      <title
         id="title63">package:2X3</title>
    </g>
  </g>
  <g
     style="stroke-width:0"
     id="g65"
     transform="translate(-72.811788,-1.2397749e-8)">
    <title
       id="title67">element:J3</title>
    <g
       style="stroke-width:0"
       id="g69">
      <title
         id="title71">package:POWER_JACK_SMD</title>
    </g>
  </g>
  <g
     style="stroke-width:0"
     id="g73"
     transform="translate(-72.811788,-1.2397749e-8)">
    <title
       id="title75">element:JP1</title>
    <g
       style="stroke-width:0"
       id="g77">
      <title
         id="title79">package:1X06-SMD</title>
    </g>
  </g>
  <g
     style="stroke-width:0"
     id="g275"
     transform="translate(-72.811788,-1.2397749e-8)">
    <title
       id="title277">element:POWER</title>
    <g
       style="stroke-width:0"
       id="g279">
      <title
         id="title281">package:1X06</title>
    </g>
  </g>
  <g
     style="stroke-width:0"
     id="g283"
     transform="translate(-72.811788,-1.2397749e-8)">
    <title
       id="title285">element:U1</title>
    <g
       style="stroke-width:0"
       id="g287">
      <title
         id="title289">package:LQFP-80</title>
    </g>
  </g>
  <g
     style="stroke-width:0"
     id="g291"
     transform="translate(-72.811788,-1.2397749e-8)">
    <title
       id="title293">element:U2</title>
    <g
       style="stroke-width:0"
       id="g295">
      <title
         id="title297">package:TQFP32-08</title>
    </g>
  </g>
  <g
     id="copper1"
     style="stroke-width:0"
     transform="translate(-72.811788,-1.2397749e-8)">
    <g
       id="copper0"
       style="stroke-width:0">
      <circle
         cx="168.05701"
         cy="144"
         connectorname="AD1"
         r="2.052"
         id="connector1pad"
         sodipodi:cx="168.05701"
         sodipodi:cy="144"
         sodipodi:rx="2.052"
         sodipodi:ry="2.052"
         style="fill:none;stroke:#f7bd13;stroke-width:1.22399998"
         d="m 170.10901,144 c 0,1.13329 -0.91871,2.052 -2.052,2.052 -1.13329,0 -2.052,-0.91871 -2.052,-2.052 0,-1.13329 0.91871,-2.052 2.052,-2.052 1.13329,0 2.052,0.91871 2.052,2.052 z" />
      <circle
         cx="175.257"
         cy="144"
         connectorname="AD2"
         r="2.052"
         id="connector2pad"
         sodipodi:cx="175.257"
         sodipodi:cy="144"
         sodipodi:rx="2.052"
         sodipodi:ry="2.052"
         style="fill:none;stroke:#f7bd13;stroke-width:1.22399998"
         d="m 177.309,144 c 0,1.13329 -0.91871,2.052 -2.052,2.052 -1.13328,0 -2.052,-0.91871 -2.052,-2.052 0,-1.13329 0.91872,-2.052 2.052,-2.052 1.13329,0 2.052,0.91871 2.052,2.052 z" />
      <circle
         cx="182.457"
         cy="144"
         connectorname="AD3"
         r="2.052"
         id="connector3pad"
         sodipodi:cx="182.457"
         sodipodi:cy="144"
         sodipodi:rx="2.052"
         sodipodi:ry="2.052"
         style="fill:none;stroke:#f7bd13;stroke-width:1.22399998"
         d="m 184.509,144 c 0,1.13329 -0.91871,2.052 -2.052,2.052 -1.13329,0 -2.052,-0.91871 -2.052,-2.052 0,-1.13329 0.91871,-2.052 2.052,-2.052 1.13329,0 2.052,0.91871 2.052,2.052 z" />
      <circle
         cx="189.657"
         cy="144"
         connectorname="AD4"
         r="2.052"
         id="connector4pad"
         sodipodi:cx="189.657"
         sodipodi:cy="144"
         sodipodi:rx="2.052"
         sodipodi:ry="2.052"
         style="fill:none;stroke:#f7bd13;stroke-width:1.22399998"
         d="m 191.709,144 c 0,1.13329 -0.91871,2.052 -2.052,2.052 -1.13329,0 -2.052,-0.91871 -2.052,-2.052 0,-1.13329 0.91871,-2.052 2.052,-2.052 1.13329,0 2.052,0.91871 2.052,2.052 z" />
      <circle
         cx="196.85699"
         cy="144"
         connectorname="AD5"
         r="2.052"
         id="connector5pad"
         sodipodi:cx="196.85699"
         sodipodi:cy="144"
         sodipodi:rx="2.052"
         sodipodi:ry="2.052"
         style="fill:none;stroke:#f7bd13;stroke-width:1.22399998"
         d="m 198.90899,144 c 0,1.13329 -0.91871,2.052 -2.052,2.052 -1.13328,0 -2.052,-0.91871 -2.052,-2.052 0,-1.13329 0.91872,-2.052 2.052,-2.052 1.13329,0 2.052,0.91871 2.052,2.052 z" />
      <circle
         cx="135.657"
         cy="7.1999998"
         connectorname="IO8"
         r="2.052"
         id="connector68pad"
         sodipodi:cx="135.657"
         sodipodi:cy="7.1999998"
         sodipodi:rx="2.052"
         sodipodi:ry="2.052"
         style="fill:none;stroke:#f7bd13;stroke-width:1.22399998"
         d="m 137.709,7.1999998 c 0,1.1332883 -0.91871,2.0520001 -2.052,2.0520001 -1.13329,0 -2.052,-0.9187118 -2.052,-2.0520001 0,-1.1332883 0.91871,-2.052 2.052,-2.052 1.13329,0 2.052,0.9187117 2.052,2.052 z" />
      <rect
         width="4.1040001"
         x="133.605"
         y="5.1479998"
         height="4.1040001"
         id="rect325"
         style="fill:none;stroke:#f7bd13;stroke-width:1.22399998" />
      <circle
         cx="128.457"
         cy="7.1999998"
         connectorname="IO9"
         r="2.052"
         id="connector69pad"
         sodipodi:cx="128.457"
         sodipodi:cy="7.1999998"
         sodipodi:rx="2.052"
         sodipodi:ry="2.052"
         style="fill:none;stroke:#f7bd13;stroke-width:1.22399998"
         d="m 130.509,7.1999998 c 0,1.1332883 -0.91871,2.0520001 -2.052,2.0520001 -1.13329,0 -2.052,-0.9187118 -2.052,-2.0520001 0,-1.1332883 0.91871,-2.052 2.052,-2.052 1.13329,0 2.052,0.9187117 2.052,2.052 z" />
      <circle
         cx="121.257"
         cy="7.1999998"
         connectorname="*CS"
         r="2.052"
         id="connector70pad"
         sodipodi:cx="121.257"
         sodipodi:cy="7.1999998"
         sodipodi:rx="2.052"
         sodipodi:ry="2.052"
         style="fill:none;stroke:#f7bd13;stroke-width:1.22399998"
         d="m 123.309,7.1999998 c 0,1.1332883 -0.91871,2.0520001 -2.052,2.0520001 -1.13328,0 -2.052,-0.9187118 -2.052,-2.0520001 0,-1.1332883 0.91872,-2.052 2.052,-2.052 1.13329,0 2.052,0.9187117 2.052,2.052 z" />
      <circle
         cx="114.057"
         cy="7.1999998"
         connectorname="MOSI"
         r="2.052"
         id="connector71pad"
         sodipodi:cx="114.057"
         sodipodi:cy="7.1999998"
         sodipodi:rx="2.052"
         sodipodi:ry="2.052"
         style="fill:none;stroke:#f7bd13;stroke-width:1.22399998"
         d="m 116.109,7.1999998 c 0,1.1332883 -0.91871,2.0520001 -2.052,2.0520001 -1.13329,0 -2.052,-0.9187118 -2.052,-2.0520001 0,-1.1332883 0.91871,-2.052 2.052,-2.052 1.13329,0 2.052,0.9187117 2.052,2.052 z" />
      <circle
         cx="106.857"
         cy="7.1999998"
         connectorname="MISO"
         r="2.052"
         id="connector72pad"
         sodipodi:cx="106.857"
         sodipodi:cy="7.1999998"
         sodipodi:rx="2.052"
         sodipodi:ry="2.052"
         style="fill:none;stroke:#f7bd13;stroke-width:1.22399998"
         d="m 108.909,7.1999998 c 0,1.1332883 -0.91871,2.0520001 -2.052,2.0520001 -1.13329,0 -2.052,-0.9187118 -2.052,-2.0520001 0,-1.1332883 0.91871,-2.052 2.052,-2.052 1.13329,0 2.052,0.9187117 2.052,2.052 z" />
      <circle
         cx="99.657402"
         cy="7.1999998"
         connectorname="SCLK"
         r="2.052"
         id="connector73pad"
         sodipodi:cx="99.657402"
         sodipodi:cy="7.1999998"
         sodipodi:rx="2.052"
         sodipodi:ry="2.052"
         style="fill:none;stroke:#f7bd13;stroke-width:1.22399998"
         d="m 101.7094,7.1999998 c 0,1.1332883 -0.91871,2.0520001 -2.051998,2.0520001 -1.133288,0 -2.052,-0.9187118 -2.052,-2.0520001 0,-1.1332883 0.918712,-2.052 2.052,-2.052 1.133288,0 2.051998,0.9187117 2.051998,2.052 z" />
      <circle
         cx="92.457397"
         cy="7.1999998"
         connectorname="GND"
         r="2.052"
         id="connector74pad"
         sodipodi:cx="92.457397"
         sodipodi:cy="7.1999998"
         sodipodi:rx="2.052"
         sodipodi:ry="2.052"
         style="fill:none;stroke:#f7bd13;stroke-width:1.22399998"
         d="m 94.509398,7.1999998 c 0,1.1332883 -0.918712,2.0520001 -2.052001,2.0520001 -1.133288,0 -2.052,-0.9187118 -2.052,-2.0520001 0,-1.1332883 0.918712,-2.052 2.052,-2.052 1.133289,0 2.052001,0.9187117 2.052001,2.052 z" />
      <circle
         cx="85.257401"
         cy="7.1999998"
         connectorname="AREF"
         r="2.052"
         id="connector75pad"
         sodipodi:cx="85.257401"
         sodipodi:cy="7.1999998"
         sodipodi:rx="2.052"
         sodipodi:ry="2.052"
         style="fill:none;stroke:#f7bd13;stroke-width:1.22399998"
         d="m 87.309401,7.1999998 c 0,1.1332883 -0.918712,2.0520001 -2.052,2.0520001 -1.133289,0 -2.052001,-0.9187118 -2.052001,-2.0520001 0,-1.1332883 0.918712,-2.052 2.052001,-2.052 1.133288,0 2.052,0.9187117 2.052,2.052 z" />
      <circle
         cx="196.85699"
         cy="7.1999998"
         connectorname="IO0"
         r="2.052"
         id="connector76pad"
         sodipodi:cx="196.85699"
         sodipodi:cy="7.1999998"
         sodipodi:rx="2.052"
         sodipodi:ry="2.052"
         style="fill:none;stroke:#f7bd13;stroke-width:1.22399998"
         d="m 198.90899,7.1999998 c 0,1.1332883 -0.91871,2.0520001 -2.052,2.0520001 -1.13328,0 -2.052,-0.9187118 -2.052,-2.0520001 0,-1.1332883 0.91872,-2.052 2.052,-2.052 1.13329,0 2.052,0.9187117 2.052,2.052 z" />
      <rect
         width="4.1040001"
         x="194.80499"
         y="5.1479998"
         height="4.1040001"
         id="rect335"
         style="fill:none;stroke:#f7bd13;stroke-width:1.22399998" />
      <circle
         cx="189.657"
         cy="7.1999998"
         connectorname="IO1"
         r="2.052"
         id="connector77pad"
         sodipodi:cx="189.657"
         sodipodi:cy="7.1999998"
         sodipodi:rx="2.052"
         sodipodi:ry="2.052"
         style="fill:none;stroke:#f7bd13;stroke-width:1.22399998"
         d="m 191.709,7.1999998 c 0,1.1332883 -0.91871,2.0520001 -2.052,2.0520001 -1.13329,0 -2.052,-0.9187118 -2.052,-2.0520001 0,-1.1332883 0.91871,-2.052 2.052,-2.052 1.13329,0 2.052,0.9187117 2.052,2.052 z" />
      <circle
         cx="182.457"
         cy="7.1999998"
         connectorname="IO2"
         r="2.052"
         id="connector78pad"
         sodipodi:cx="182.457"
         sodipodi:cy="7.1999998"
         sodipodi:rx="2.052"
         sodipodi:ry="2.052"
         style="fill:none;stroke:#f7bd13;stroke-width:1.22399998"
         d="m 184.509,7.1999998 c 0,1.1332883 -0.91871,2.0520001 -2.052,2.0520001 -1.13329,0 -2.052,-0.9187118 -2.052,-2.0520001 0,-1.1332883 0.91871,-2.052 2.052,-2.052 1.13329,0 2.052,0.9187117 2.052,2.052 z" />
      <circle
         cx="175.257"
         cy="7.1999998"
         connectorname="IO3"
         r="2.052"
         id="connector79pad"
         sodipodi:cx="175.257"
         sodipodi:cy="7.1999998"
         sodipodi:rx="2.052"
         sodipodi:ry="2.052"
         style="fill:none;stroke:#f7bd13;stroke-width:1.22399998"
         d="m 177.309,7.1999998 c 0,1.1332883 -0.91871,2.0520001 -2.052,2.0520001 -1.13328,0 -2.052,-0.9187118 -2.052,-2.0520001 0,-1.1332883 0.91872,-2.052 2.052,-2.052 1.13329,0 2.052,0.9187117 2.052,2.052 z" />
      <circle
         cx="168.05701"
         cy="7.1999998"
         connectorname="IO4"
         r="2.052"
         id="connector80pad"
         sodipodi:cx="168.05701"
         sodipodi:cy="7.1999998"
         sodipodi:rx="2.052"
         sodipodi:ry="2.052"
         style="fill:none;stroke:#f7bd13;stroke-width:1.22399998"
         d="m 170.10901,7.1999998 c 0,1.1332883 -0.91871,2.0520001 -2.052,2.0520001 -1.13329,0 -2.052,-0.9187118 -2.052,-2.0520001 0,-1.1332883 0.91871,-2.052 2.052,-2.052 1.13329,0 2.052,0.9187117 2.052,2.052 z" />
      <circle
         cx="160.85699"
         cy="7.1999998"
         connectorname="IO5"
         r="2.052"
         id="connector81pad"
         sodipodi:cx="160.85699"
         sodipodi:cy="7.1999998"
         sodipodi:rx="2.052"
         sodipodi:ry="2.052"
         style="fill:none;stroke:#f7bd13;stroke-width:1.22399998"
         d="m 162.90899,7.1999998 c 0,1.1332883 -0.91871,2.0520001 -2.052,2.0520001 -1.13328,0 -2.052,-0.9187118 -2.052,-2.0520001 0,-1.1332883 0.91872,-2.052 2.052,-2.052 1.13329,0 2.052,0.9187117 2.052,2.052 z" />
      <circle
         cx="153.657"
         cy="7.1999998"
         connectorname="IO6"
         r="2.052"
         id="connector82pad"
         sodipodi:cx="153.657"
         sodipodi:cy="7.1999998"
         sodipodi:rx="2.052"
         sodipodi:ry="2.052"
         style="fill:none;stroke:#f7bd13;stroke-width:1.22399998"
         d="m 155.709,7.1999998 c 0,1.1332883 -0.91871,2.0520001 -2.052,2.0520001 -1.13329,0 -2.052,-0.9187118 -2.052,-2.0520001 0,-1.1332883 0.91871,-2.052 2.052,-2.052 1.13329,0 2.052,0.9187117 2.052,2.052 z" />
      <circle
         cx="146.457"
         cy="7.1999998"
         connectorname="IO7"
         r="2.052"
         id="connector83pad"
         sodipodi:cx="146.457"
         sodipodi:cy="7.1999998"
         sodipodi:rx="2.052"
         sodipodi:ry="2.052"
         style="fill:none;stroke:#f7bd13;stroke-width:1.22399998"
         d="m 148.509,7.1999998 c 0,1.1332883 -0.91871,2.0520001 -2.052,2.0520001 -1.13329,0 -2.052,-0.9187118 -2.052,-2.0520001 0,-1.1332883 0.91871,-2.052 2.052,-2.052 1.13329,0 2.052,0.9187117 2.052,2.052 z" />
      <circle
         cx="196.85699"
         cy="64.800003"
         connectorname="MISO"
         r="2.052"
         id="connector98pad"
         sodipodi:cx="196.85699"
         sodipodi:cy="64.800003"
         sodipodi:rx="2.052"
         sodipodi:ry="2.052"
         style="fill:none;stroke:#f7bd13;stroke-width:1.22399998"
         d="m 198.90899,64.800003 c 0,1.133288 -0.91871,2.052 -2.052,2.052 -1.13328,0 -2.052,-0.918712 -2.052,-2.052 0,-1.133288 0.91872,-2.052 2.052,-2.052 1.13329,0 2.052,0.918712 2.052,2.052 z" />
      <circle
         cx="204.05701"
         cy="64.800003"
         connectorname="5V"
         r="2.052"
         id="connector99pad"
         sodipodi:cx="204.05701"
         sodipodi:cy="64.800003"
         sodipodi:rx="2.052"
         sodipodi:ry="2.052"
         style="fill:none;stroke:#f7bd13;stroke-width:1.22399998"
         d="m 206.10901,64.800003 c 0,1.133288 -0.91871,2.052 -2.052,2.052 -1.13329,0 -2.052,-0.918712 -2.052,-2.052 0,-1.133288 0.91871,-2.052 2.052,-2.052 1.13329,0 2.052,0.918712 2.052,2.052 z" />
      <circle
         cx="196.85699"
         cy="72"
         connectorname="SCLK"
         r="2.052"
         id="connector100pad"
         sodipodi:cx="196.85699"
         sodipodi:cy="72"
         sodipodi:rx="2.052"
         sodipodi:ry="2.052"
         style="fill:none;stroke:#f7bd13;stroke-width:1.22399998"
         d="m 198.90899,72 c 0,1.133288 -0.91871,2.052 -2.052,2.052 -1.13328,0 -2.052,-0.918712 -2.052,-2.052 0,-1.133288 0.91872,-2.052 2.052,-2.052 1.13329,0 2.052,0.918712 2.052,2.052 z" />
      <circle
         cx="204.05701"
         cy="72"
         connectorname="MOSI"
         r="2.052"
         id="connector101pad"
         sodipodi:cx="204.05701"
         sodipodi:cy="72"
         sodipodi:rx="2.052"
         sodipodi:ry="2.052"
         style="fill:none;stroke:#f7bd13;stroke-width:1.22399998"
         d="m 206.10901,72 c 0,1.133288 -0.91871,2.052 -2.052,2.052 -1.13329,0 -2.052,-0.918712 -2.052,-2.052 0,-1.133288 0.91871,-2.052 2.052,-2.052 1.13329,0 2.052,0.918712 2.052,2.052 z" />
      <circle
         cx="196.85699"
         cy="79.199997"
         connectorname="RESET"
         r="2.052"
         id="connector102pad"
         sodipodi:cx="196.85699"
         sodipodi:cy="79.199997"
         sodipodi:rx="2.052"
         sodipodi:ry="2.052"
         style="fill:none;stroke:#f7bd13;stroke-width:1.22399998"
         d="m 198.90899,79.199997 c 0,1.133288 -0.91871,2.052 -2.052,2.052 -1.13328,0 -2.052,-0.918712 -2.052,-2.052 0,-1.133288 0.91872,-2.052 2.052,-2.052 1.13329,0 2.052,0.918712 2.052,2.052 z" />
      <circle
         cx="204.05701"
         cy="79.199997"
         connectorname="GND"
         r="2.052"
         id="connector103pad"
         sodipodi:cx="204.05701"
         sodipodi:cy="79.199997"
         sodipodi:rx="2.052"
         sodipodi:ry="2.052"
         style="fill:none;stroke:#f7bd13;stroke-width:1.22399998"
         d="m 206.10901,79.199997 c 0,1.133288 -0.91871,2.052 -2.052,2.052 -1.13329,0 -2.052,-0.918712 -2.052,-2.052 0,-1.133288 0.91871,-2.052 2.052,-2.052 1.13329,0 2.052,0.918712 2.052,2.052 z" />
      <circle
         cx="110.457"
         cy="144"
         connectorname="RESET"
         r="2.052"
         id="connector128pad"
         sodipodi:cx="110.457"
         sodipodi:cy="144"
         sodipodi:rx="2.052"
         sodipodi:ry="2.052"
         style="fill:none;stroke:#f7bd13;stroke-width:1.22399998"
         d="m 112.509,144 c 0,1.13329 -0.91871,2.052 -2.052,2.052 -1.13329,0 -2.052,-0.91871 -2.052,-2.052 0,-1.13329 0.91871,-2.052 2.052,-2.052 1.13329,0 2.052,0.91871 2.052,2.052 z" />
      <circle
         cx="117.657"
         cy="144"
         connectorname="3.3V"
         r="2.052"
         id="connector129pad"
         sodipodi:cx="117.657"
         sodipodi:cy="144"
         sodipodi:rx="2.052"
         sodipodi:ry="2.052"
         style="fill:none;stroke:#f7bd13;stroke-width:1.22399998"
         d="m 119.709,144 c 0,1.13329 -0.91871,2.052 -2.052,2.052 -1.13329,0 -2.052,-0.91871 -2.052,-2.052 0,-1.13329 0.91871,-2.052 2.052,-2.052 1.13329,0 2.052,0.91871 2.052,2.052 z" />
      <circle
         cx="124.857"
         cy="144"
         connectorname="5V"
         r="2.052"
         id="connector130pad"
         sodipodi:cx="124.857"
         sodipodi:cy="144"
         sodipodi:rx="2.052"
         sodipodi:ry="2.052"
         style="fill:none;stroke:#f7bd13;stroke-width:1.22399998"
         d="m 126.909,144 c 0,1.13329 -0.91871,2.052 -2.052,2.052 -1.13329,0 -2.052,-0.91871 -2.052,-2.052 0,-1.13329 0.91871,-2.052 2.052,-2.052 1.13329,0 2.052,0.91871 2.052,2.052 z" />
      <circle
         cx="132.05701"
         cy="144"
         connectorname="GND"
         r="2.052"
         id="connector131pad"
         sodipodi:cx="132.05701"
         sodipodi:cy="144"
         sodipodi:rx="2.052"
         sodipodi:ry="2.052"
         style="fill:none;stroke:#f7bd13;stroke-width:1.22399998"
         d="m 134.10901,144 c 0,1.13329 -0.91871,2.052 -2.052,2.052 -1.13329,0 -2.052,-0.91871 -2.052,-2.052 0,-1.13329 0.91871,-2.052 2.052,-2.052 1.13329,0 2.052,0.91871 2.052,2.052 z" />
      <circle
         cx="139.257"
         cy="144"
         connectorname="GND"
         r="2.052"
         id="connector132pad"
         sodipodi:cx="139.257"
         sodipodi:cy="144"
         sodipodi:rx="2.052"
         sodipodi:ry="2.052"
         style="fill:none;stroke:#f7bd13;stroke-width:1.22399998"
         d="m 141.309,144 c 0,1.13329 -0.91871,2.052 -2.052,2.052 -1.13328,0 -2.052,-0.91871 -2.052,-2.052 0,-1.13329 0.91872,-2.052 2.052,-2.052 1.13329,0 2.052,0.91871 2.052,2.052 z" />
      <circle
         cx="146.457"
         cy="144"
         connectorname="VIN"
         r="2.052"
         id="connector133pad"
         sodipodi:cx="146.457"
         sodipodi:cy="144"
         sodipodi:rx="2.052"
         sodipodi:ry="2.052"
         style="fill:none;stroke:#f7bd13;stroke-width:1.22399998"
         d="m 148.509,144 c 0,1.13329 -0.91871,2.052 -2.052,2.052 -1.13329,0 -2.052,-0.91871 -2.052,-2.052 0,-1.13329 0.91871,-2.052 2.052,-2.052 1.13329,0 2.052,0.91871 2.052,2.052 z" />
      <circle
         cx="160.85699"
         cy="144"
         connectorname="AD0"
         r="2.052"
         id="connector0pad"
         sodipodi:cx="160.85699"
         sodipodi:cy="144"
         sodipodi:rx="2.052"
         sodipodi:ry="2.052"
         style="fill:none;stroke:#f7bd13;stroke-width:1.22399998"
         d="m 162.90899,144 c 0,1.13329 -0.91871,2.052 -2.052,2.052 -1.13328,0 -2.052,-0.91871 -2.052,-2.052 0,-1.13329 0.91872,-2.052 2.052,-2.052 1.13329,0 2.052,0.91871 2.052,2.052 z" />
    </g>
  </g>
</svg>
