<?xml version="1.0" encoding="UTF-8" standalone="no"?>
<!-- Created with Fritzing (http://www.fritzing.org/) -->

<svg
   xmlns:dc="http://purl.org/dc/elements/1.1/"
   xmlns:cc="http://creativecommons.org/ns#"
   xmlns:rdf="http://www.w3.org/1999/02/22-rdf-syntax-ns#"
   xmlns:svg="http://www.w3.org/2000/svg"
   xmlns="http://www.w3.org/2000/svg"
   xmlns:sodipodi="http://sodipodi.sourceforge.net/DTD/sodipodi-0.dtd"
   xmlns:inkscape="http://www.inkscape.org/namespaces/inkscape"
   width="173.05673"
   x="0in"
   version="1.2"
   y="0in"
   height="188.99998"
   viewBox="0 0 138.44516 151.2"
   id="svg2"
   inkscape:version="0.48.2 r9819"
   sodipodi:docname="Arduino_Shield_Short_noSPI_pcb.svg">
  <metadata
     id="metadata361">
    <rdf:RDF>
      <cc:Work
         rdf:about="">
        <dc:format>image/svg+xml</dc:format>
        <dc:type
           rdf:resource="http://purl.org/dc/dcmitype/StillImage" />
        <dc:title></dc:title>
      </cc:Work>
    </rdf:RDF>
  </metadata>
  <defs
     id="defs359" />
  <sodipodi:namedview
     pagecolor="#dfdfdf"
     bordercolor="#666666"
     borderopacity="1"
     objecttolerance="10"
     gridtolerance="10"
     guidetolerance="10"
     inkscape:pageopacity="1"
     inkscape:pageshadow="2"
     inkscape:window-width="1140"
     inkscape:window-height="685"
     id="namedview357"
     showgrid="false"
     inkscape:document-units="mm"
     inkscape:zoom="2.4708997"
     inkscape:cx="41.021115"
     inkscape:cy="93.096074"
     inkscape:window-x="344"
     inkscape:window-y="2"
     inkscape:window-maximized="0"
     inkscape:current-layer="svg2"
     showguides="true"
     inkscape:guide-bbox="true"
     fit-margin-top="0"
     fit-margin-left="0"
     fit-margin-right="0"
     fit-margin-bottom="0" />
  <desc
     id="desc4">Fritzing footprint generated by brd2svg</desc>
  <g
     id="silkscreen">
    <path
       d="m 0.28781714,0.28799999 126.02239286,0 4.668,4.66217001 0,31.91793 7.179,7.1726 0,92.5263 -7.179,7.172 0,7.173 -130.69039286,0 0,-150.62400001 M 126.85321,50.4 c 0,2.299646 2.09235,4.391998 4.392,4.391998 2.29965,0 4.392,-2.092352 4.392,-4.391998 0,-2.299646 -2.09235,-4.391998 -4.392,-4.391998 -2.29965,0 -4.392,2.092352 -4.392,4.391998 z m 0,79.2 c 0,2.29965 2.09235,4.392 4.392,4.392 2.29965,0 4.392,-2.09235 4.392,-4.392 0,-2.29965 -2.09235,-4.392 -4.392,-4.392 -2.29965,0 -4.392,2.09235 -4.392,4.392 z"
       id="path7"
       inkscape:connector-curvature="0"
       style="fill:none;stroke:#ffffff;stroke-width:0.57599998"
       sodipodi:nodetypes="ccccccccccssssssssss" />
  </g>
  <g
     style="stroke-width:0"
     id="g9"
     transform="translate(-72.811788,-1.2397749e-8)">
    <title
       id="title11">element:AD</title>
    <g
       style="stroke-width:0"
       id="g13">
      <title
         id="title15">package:1X06</title>
    </g>
  </g>
  <g
     style="stroke-width:0"
     id="g17"
     transform="translate(-72.811788,-1.2397749e-8)">
    <title
       id="title19">element:IC1</title>
    <g
       style="stroke-width:0"
       id="g21">
      <title
         id="title23">package:SOT223</title>
    </g>
  </g>
  <g
     style="stroke-width:0"
     id="g25"
     transform="translate(-72.811788,-1.2397749e-8)">
    <title
       id="title27">element:IC2</title>
    <g
       style="stroke-width:0"
       id="g29">
      <title
         id="title31">package:SOT223</title>
    </g>
  </g>
  <g
     style="stroke-width:0"
     id="g33"
     transform="translate(-72.811788,-1.2397749e-8)">
    <title
       id="title35">element:IOH</title>
    <g
       style="stroke-width:0"
       id="g37">
      <title
         id="title39">package:1X08</title>
    </g>
  </g>
  <g
     style="stroke-width:0"
     id="g41"
     transform="translate(-72.811788,-1.2397749e-8)">
    <title
       id="title43">element:IOL</title>
    <g
       style="stroke-width:0"
       id="g45">
      <title
         id="title47">package:1X08</title>
    </g>
  </g>
  <g
     style="stroke-width:0"
     id="g49"
     transform="translate(-72.811788,-1.2397749e-8)">
    <title
       id="title51">element:J1</title>
    <g
       style="stroke-width:0"
       id="g53">
      <title
         id="title55">package:MAGJACK</title>
    </g>
  </g>
  <g
     style="stroke-width:0"
     id="g57"
     transform="translate(-72.811788,-1.2397749e-8)">
    <title
       id="title59">element:J2</title>
    <g
       style="stroke-width:0"
       id="g61">
      <title
         id="title63">package:2X3</title>
    </g>
  </g>
  <g
     style="stroke-width:0"
     id="g65"
     transform="translate(-72.811788,-1.2397749e-8)">
    <title
       id="title67">element:J3</title>
    <g
       style="stroke-width:0"
       id="g69">
      <title
         id="title71">package:POWER_JACK_SMD</title>
    </g>
  </g>
  <g
     style="stroke-width:0"
     id="g73"
     transform="translate(-72.811788,-1.2397749e-8)">
    <title
       id="title75">element:JP1</title>
    <g
       style="stroke-width:0"
       id="g77">
      <title
         id="title79">package:1X06-SMD</title>
    </g>
  </g>
  <g
     style="stroke-width:0"
     id="g275"
     transform="translate(-72.811788,-1.2397749e-8)">
    <title
       id="title277">element:POWER</title>
    <g
       style="stroke-width:0"
       id="g279">
      <title
         id="title281">package:1X06</title>
    </g>
  </g>
  <g
     style="stroke-width:0"
     id="g283"
     transform="translate(-72.811788,-1.2397749e-8)">
    <title
       id="title285">element:U1</title>
    <g
       style="stroke-width:0"
       id="g287">
      <title
         id="title289">package:LQFP-80</title>
    </g>
  </g>
  <g
     style="stroke-width:0"
     id="g291"
     transform="translate(-72.811788,-1.2397749e-8)">
    <title
       id="title293">element:U2</title>
    <g
       style="stroke-width:0"
       id="g295">
      <title
         id="title297">package:TQFP32-08</title>
    </g>
  </g>
  <g
     id="copper1">
    <circle
       transform="translate(-72.811788,-1.2397749e-8)"
       d="m 170.10901,144 c 0,1.13329 -0.91871,2.052 -2.052,2.052 -1.13329,0 -2.052,-0.91871 -2.052,-2.052 0,-1.13329 0.91871,-2.052 2.052,-2.052 1.13329,0 2.052,0.91871 2.052,2.052 z"
       style="fill:none;stroke:#f7bd13;stroke-width:1.22399998"
       sodipodi:ry="2.052"
       sodipodi:rx="2.052"
       sodipodi:cy="144"
       sodipodi:cx="168.05701"
       id="connector1pad"
       r="2.052"
       connectorname="AD1"
       cy="144"
       cx="168.05701" />
    <circle
       transform="translate(-72.811788,-1.2397749e-8)"
       d="m 177.309,144 c 0,1.13329 -0.91871,2.052 -2.052,2.052 -1.13328,0 -2.052,-0.91871 -2.052,-2.052 0,-1.13329 0.91872,-2.052 2.052,-2.052 1.13329,0 2.052,0.91871 2.052,2.052 z"
       style="fill:none;stroke:#f7bd13;stroke-width:1.22399998"
       sodipodi:ry="2.052"
       sodipodi:rx="2.052"
       sodipodi:cy="144"
       sodipodi:cx="175.257"
       id="connector2pad"
       r="2.052"
       connectorname="AD2"
       cy="144"
       cx="175.257" />
    <circle
       transform="translate(-72.811788,-1.2397749e-8)"
       d="m 184.509,144 c 0,1.13329 -0.91871,2.052 -2.052,2.052 -1.13329,0 -2.052,-0.91871 -2.052,-2.052 0,-1.13329 0.91871,-2.052 2.052,-2.052 1.13329,0 2.052,0.91871 2.052,2.052 z"
       style="fill:none;stroke:#f7bd13;stroke-width:1.22399998"
       sodipodi:ry="2.052"
       sodipodi:rx="2.052"
       sodipodi:cy="144"
       sodipodi:cx="182.457"
       id="connector3pad"
       r="2.052"
       connectorname="AD3"
       cy="144"
       cx="182.457" />
    <circle
       transform="translate(-72.811788,-1.2397749e-8)"
       d="m 191.709,144 c 0,1.13329 -0.91871,2.052 -2.052,2.052 -1.13329,0 -2.052,-0.91871 -2.052,-2.052 0,-1.13329 0.91871,-2.052 2.052,-2.052 1.13329,0 2.052,0.91871 2.052,2.052 z"
       style="fill:none;stroke:#f7bd13;stroke-width:1.22399998"
       sodipodi:ry="2.052"
       sodipodi:rx="2.052"
       sodipodi:cy="144"
       sodipodi:cx="189.657"
       id="connector4pad"
       r="2.052"
       connectorname="AD4"
       cy="144"
       cx="189.657" />
    <circle
       transform="translate(-72.811788,-1.2397749e-8)"
       d="m 198.90899,144 c 0,1.13329 -0.91871,2.052 -2.052,2.052 -1.13328,0 -2.052,-0.91871 -2.052,-2.052 0,-1.13329 0.91872,-2.052 2.052,-2.052 1.13329,0 2.052,0.91871 2.052,2.052 z"
       style="fill:none;stroke:#f7bd13;stroke-width:1.22399998"
       sodipodi:ry="2.052"
       sodipodi:rx="2.052"
       sodipodi:cy="144"
       sodipodi:cx="196.85699"
       id="connector5pad"
       r="2.052"
       connectorname="AD5"
       cy="144"
       cx="196.85699" />
    <circle
       transform="translate(-72.811788,-1.2397749e-8)"
       d="m 137.709,7.1999998 c 0,1.1332883 -0.91871,2.0520001 -2.052,2.0520001 -1.13329,0 -2.052,-0.9187118 -2.052,-2.0520001 0,-1.1332883 0.91871,-2.052 2.052,-2.052 1.13329,0 2.052,0.9187117 2.052,2.052 z"
       style="fill:none;stroke:#f7bd13;stroke-width:1.22399998"
       sodipodi:ry="2.052"
       sodipodi:rx="2.052"
       sodipodi:cy="7.1999998"
       sodipodi:cx="135.657"
       id="connector68pad"
       r="2.052"
       connectorname="IO8"
       cy="7.1999998"
       cx="135.657" />
    <rect
       style="fill:none;stroke:#f7bd13;stroke-width:1.22399998"
       id="rect325"
       height="4.1040001"
       y="5.1479998"
       x="60.793209"
       width="4.1040001" />
    <circle
       transform="translate(-72.811788,-1.2397749e-8)"
       d="m 130.509,7.1999998 c 0,1.1332883 -0.91871,2.0520001 -2.052,2.0520001 -1.13329,0 -2.052,-0.9187118 -2.052,-2.0520001 0,-1.1332883 0.91871,-2.052 2.052,-2.052 1.13329,0 2.052,0.9187117 2.052,2.052 z"
       style="fill:none;stroke:#f7bd13;stroke-width:1.22399998"
       sodipodi:ry="2.052"
       sodipodi:rx="2.052"
       sodipodi:cy="7.1999998"
       sodipodi:cx="128.457"
       id="connector69pad"
       r="2.052"
       connectorname="IO9"
       cy="7.1999998"
       cx="128.457" />
    <circle
       transform="translate(-72.811788,-1.2397749e-8)"
       d="m 123.309,7.1999998 c 0,1.1332883 -0.91871,2.0520001 -2.052,2.0520001 -1.13328,0 -2.052,-0.9187118 -2.052,-2.0520001 0,-1.1332883 0.91872,-2.052 2.052,-2.052 1.13329,0 2.052,0.9187117 2.052,2.052 z"
       style="fill:none;stroke:#f7bd13;stroke-width:1.22399998"
       sodipodi:ry="2.052"
       sodipodi:rx="2.052"
       sodipodi:cy="7.1999998"
       sodipodi:cx="121.257"
       id="connector70pad"
       r="2.052"
       connectorname="*CS"
       cy="7.1999998"
       cx="121.257" />
    <circle
       transform="translate(-72.811788,-1.2397749e-8)"
       d="m 116.109,7.1999998 c 0,1.1332883 -0.91871,2.0520001 -2.052,2.0520001 -1.13329,0 -2.052,-0.9187118 -2.052,-2.0520001 0,-1.1332883 0.91871,-2.052 2.052,-2.052 1.13329,0 2.052,0.9187117 2.052,2.052 z"
       style="fill:none;stroke:#f7bd13;stroke-width:1.22399998"
       sodipodi:ry="2.052"
       sodipodi:rx="2.052"
       sodipodi:cy="7.1999998"
       sodipodi:cx="114.057"
       id="connector71pad"
       r="2.052"
       connectorname="MOSI"
       cy="7.1999998"
       cx="114.057" />
    <circle
       transform="translate(-72.811788,-1.2397749e-8)"
       d="m 108.909,7.1999998 c 0,1.1332883 -0.91871,2.0520001 -2.052,2.0520001 -1.13329,0 -2.052,-0.9187118 -2.052,-2.0520001 0,-1.1332883 0.91871,-2.052 2.052,-2.052 1.13329,0 2.052,0.9187117 2.052,2.052 z"
       style="fill:none;stroke:#f7bd13;stroke-width:1.22399998"
       sodipodi:ry="2.052"
       sodipodi:rx="2.052"
       sodipodi:cy="7.1999998"
       sodipodi:cx="106.857"
       id="connector72pad"
       r="2.052"
       connectorname="MISO"
       cy="7.1999998"
       cx="106.857" />
    <circle
       transform="translate(-72.811788,-1.2397749e-8)"
       d="m 101.7094,7.1999998 c 0,1.1332883 -0.91871,2.0520001 -2.051998,2.0520001 -1.133288,0 -2.052,-0.9187118 -2.052,-2.0520001 0,-1.1332883 0.918712,-2.052 2.052,-2.052 1.133288,0 2.051998,0.9187117 2.051998,2.052 z"
       style="fill:none;stroke:#f7bd13;stroke-width:1.22399998"
       sodipodi:ry="2.052"
       sodipodi:rx="2.052"
       sodipodi:cy="7.1999998"
       sodipodi:cx="99.657402"
       id="connector73pad"
       r="2.052"
       connectorname="SCLK"
       cy="7.1999998"
       cx="99.657402" />
    <circle
       transform="translate(-72.811788,-1.2397749e-8)"
       d="m 94.509398,7.1999998 c 0,1.1332883 -0.918712,2.0520001 -2.052001,2.0520001 -1.133288,0 -2.052,-0.9187118 -2.052,-2.0520001 0,-1.1332883 0.918712,-2.052 2.052,-2.052 1.133289,0 2.052001,0.9187117 2.052001,2.052 z"
       style="fill:none;stroke:#f7bd13;stroke-width:1.22399998"
       sodipodi:ry="2.052"
       sodipodi:rx="2.052"
       sodipodi:cy="7.1999998"
       sodipodi:cx="92.457397"
       id="connector74pad"
       r="2.052"
       connectorname="GND"
       cy="7.1999998"
       cx="92.457397" />
    <circle
       transform="translate(-72.811788,-1.2397749e-8)"
       d="m 87.309401,7.1999998 c 0,1.1332883 -0.918712,2.0520001 -2.052,2.0520001 -1.133289,0 -2.052001,-0.9187118 -2.052001,-2.0520001 0,-1.1332883 0.918712,-2.052 2.052001,-2.052 1.133288,0 2.052,0.9187117 2.052,2.052 z"
       style="fill:none;stroke:#f7bd13;stroke-width:1.22399998"
       sodipodi:ry="2.052"
       sodipodi:rx="2.052"
       sodipodi:cy="7.1999998"
       sodipodi:cx="85.257401"
       id="connector75pad"
       r="2.052"
       connectorname="AREF"
       cy="7.1999998"
       cx="85.257401" />
    <circle
       transform="translate(-72.811788,-1.2397749e-8)"
       d="m 198.90899,7.1999998 c 0,1.1332883 -0.91871,2.0520001 -2.052,2.0520001 -1.13328,0 -2.052,-0.9187118 -2.052,-2.0520001 0,-1.1332883 0.91872,-2.052 2.052,-2.052 1.13329,0 2.052,0.9187117 2.052,2.052 z"
       style="fill:none;stroke:#f7bd13;stroke-width:1.22399998"
       sodipodi:ry="2.052"
       sodipodi:rx="2.052"
       sodipodi:cy="7.1999998"
       sodipodi:cx="196.85699"
       id="connector76pad"
       r="2.052"
       connectorname="IO0"
       cy="7.1999998"
       cx="196.85699" />
    <rect
       style="fill:none;stroke:#f7bd13;stroke-width:1.22399998"
       id="rect335"
       height="4.1040001"
       y="5.1479998"
       x="121.9932"
       width="4.1040001" />
    <circle
       transform="translate(-72.811788,-1.2397749e-8)"
       d="m 191.709,7.1999998 c 0,1.1332883 -0.91871,2.0520001 -2.052,2.0520001 -1.13329,0 -2.052,-0.9187118 -2.052,-2.0520001 0,-1.1332883 0.91871,-2.052 2.052,-2.052 1.13329,0 2.052,0.9187117 2.052,2.052 z"
       style="fill:none;stroke:#f7bd13;stroke-width:1.22399998"
       sodipodi:ry="2.052"
       sodipodi:rx="2.052"
       sodipodi:cy="7.1999998"
       sodipodi:cx="189.657"
       id="connector77pad"
       r="2.052"
       connectorname="IO1"
       cy="7.1999998"
       cx="189.657" />
    <circle
       transform="translate(-72.811788,-1.2397749e-8)"
       d="m 184.509,7.1999998 c 0,1.1332883 -0.91871,2.0520001 -2.052,2.0520001 -1.13329,0 -2.052,-0.9187118 -2.052,-2.0520001 0,-1.1332883 0.91871,-2.052 2.052,-2.052 1.13329,0 2.052,0.9187117 2.052,2.052 z"
       style="fill:none;stroke:#f7bd13;stroke-width:1.22399998"
       sodipodi:ry="2.052"
       sodipodi:rx="2.052"
       sodipodi:cy="7.1999998"
       sodipodi:cx="182.457"
       id="connector78pad"
       r="2.052"
       connectorname="IO2"
       cy="7.1999998"
       cx="182.457" />
    <circle
       transform="translate(-72.811788,-1.2397749e-8)"
       d="m 177.309,7.1999998 c 0,1.1332883 -0.91871,2.0520001 -2.052,2.0520001 -1.13328,0 -2.052,-0.9187118 -2.052,-2.0520001 0,-1.1332883 0.91872,-2.052 2.052,-2.052 1.13329,0 2.052,0.9187117 2.052,2.052 z"
       style="fill:none;stroke:#f7bd13;stroke-width:1.22399998"
       sodipodi:ry="2.052"
       sodipodi:rx="2.052"
       sodipodi:cy="7.1999998"
       sodipodi:cx="175.257"
       id="connector79pad"
       r="2.052"
       connectorname="IO3"
       cy="7.1999998"
       cx="175.257" />
    <circle
       transform="translate(-72.811788,-1.2397749e-8)"
       d="m 170.10901,7.1999998 c 0,1.1332883 -0.91871,2.0520001 -2.052,2.0520001 -1.13329,0 -2.052,-0.9187118 -2.052,-2.0520001 0,-1.1332883 0.91871,-2.052 2.052,-2.052 1.13329,0 2.052,0.9187117 2.052,2.052 z"
       style="fill:none;stroke:#f7bd13;stroke-width:1.22399998"
       sodipodi:ry="2.052"
       sodipodi:rx="2.052"
       sodipodi:cy="7.1999998"
       sodipodi:cx="168.05701"
       id="connector80pad"
       r="2.052"
       connectorname="IO4"
       cy="7.1999998"
       cx="168.05701" />
    <circle
       transform="translate(-72.811788,-1.2397749e-8)"
       d="m 162.90899,7.1999998 c 0,1.1332883 -0.91871,2.0520001 -2.052,2.0520001 -1.13328,0 -2.052,-0.9187118 -2.052,-2.0520001 0,-1.1332883 0.91872,-2.052 2.052,-2.052 1.13329,0 2.052,0.9187117 2.052,2.052 z"
       style="fill:none;stroke:#f7bd13;stroke-width:1.22399998"
       sodipodi:ry="2.052"
       sodipodi:rx="2.052"
       sodipodi:cy="7.1999998"
       sodipodi:cx="160.85699"
       id="connector81pad"
       r="2.052"
       connectorname="IO5"
       cy="7.1999998"
       cx="160.85699" />
    <circle
       transform="translate(-72.811788,-1.2397749e-8)"
       d="m 155.709,7.1999998 c 0,1.1332883 -0.91871,2.0520001 -2.052,2.0520001 -1.13329,0 -2.052,-0.9187118 -2.052,-2.0520001 0,-1.1332883 0.91871,-2.052 2.052,-2.052 1.13329,0 2.052,0.9187117 2.052,2.052 z"
       style="fill:none;stroke:#f7bd13;stroke-width:1.22399998"
       sodipodi:ry="2.052"
       sodipodi:rx="2.052"
       sodipodi:cy="7.1999998"
       sodipodi:cx="153.657"
       id="connector82pad"
       r="2.052"
       connectorname="IO6"
       cy="7.1999998"
       cx="153.657" />
    <circle
       transform="translate(-72.811788,-1.2397749e-8)"
       d="m 148.509,7.1999998 c 0,1.1332883 -0.91871,2.0520001 -2.052,2.0520001 -1.13329,0 -2.052,-0.9187118 -2.052,-2.0520001 0,-1.1332883 0.91871,-2.052 2.052,-2.052 1.13329,0 2.052,0.9187117 2.052,2.052 z"
       style="fill:none;stroke:#f7bd13;stroke-width:1.22399998"
       sodipodi:ry="2.052"
       sodipodi:rx="2.052"
       sodipodi:cy="7.1999998"
       sodipodi:cx="146.457"
       id="connector83pad"
       r="2.052"
       connectorname="IO7"
       cy="7.1999998"
       cx="146.457" />
    <circle
       transform="translate(-72.811788,-1.2397749e-8)"
       d="m 112.509,144 c 0,1.13329 -0.91871,2.052 -2.052,2.052 -1.13329,0 -2.052,-0.91871 -2.052,-2.052 0,-1.13329 0.91871,-2.052 2.052,-2.052 1.13329,0 2.052,0.91871 2.052,2.052 z"
       style="fill:none;stroke:#f7bd13;stroke-width:1.22399998"
       sodipodi:ry="2.052"
       sodipodi:rx="2.052"
       sodipodi:cy="144"
       sodipodi:cx="110.457"
       id="connector128pad"
       r="2.052"
       connectorname="RESET"
       cy="144"
       cx="110.457" />
    <circle
       transform="translate(-72.811788,-1.2397749e-8)"
       d="m 119.709,144 c 0,1.13329 -0.91871,2.052 -2.052,2.052 -1.13329,0 -2.052,-0.91871 -2.052,-2.052 0,-1.13329 0.91871,-2.052 2.052,-2.052 1.13329,0 2.052,0.91871 2.052,2.052 z"
       style="fill:none;stroke:#f7bd13;stroke-width:1.22399998"
       sodipodi:ry="2.052"
       sodipodi:rx="2.052"
       sodipodi:cy="144"
       sodipodi:cx="117.657"
       id="connector129pad"
       r="2.052"
       connectorname="3.3V"
       cy="144"
       cx="117.657" />
    <circle
       transform="translate(-72.811788,-1.2397749e-8)"
       d="m 126.909,144 c 0,1.13329 -0.91871,2.052 -2.052,2.052 -1.13329,0 -2.052,-0.91871 -2.052,-2.052 0,-1.13329 0.91871,-2.052 2.052,-2.052 1.13329,0 2.052,0.91871 2.052,2.052 z"
       style="fill:none;stroke:#f7bd13;stroke-width:1.22399998"
       sodipodi:ry="2.052"
       sodipodi:rx="2.052"
       sodipodi:cy="144"
       sodipodi:cx="124.857"
       id="connector130pad"
       r="2.052"
       connectorname="5V"
       cy="144"
       cx="124.857" />
    <circle
       transform="translate(-72.811788,-1.2397749e-8)"
       d="m 134.10901,144 c 0,1.13329 -0.91871,2.052 -2.052,2.052 -1.13329,0 -2.052,-0.91871 -2.052,-2.052 0,-1.13329 0.91871,-2.052 2.052,-2.052 1.13329,0 2.052,0.91871 2.052,2.052 z"
       style="fill:none;stroke:#f7bd13;stroke-width:1.22399998"
       sodipodi:ry="2.052"
       sodipodi:rx="2.052"
       sodipodi:cy="144"
       sodipodi:cx="132.05701"
       id="connector131pad"
       r="2.052"
       connectorname="GND"
       cy="144"
       cx="132.05701" />
    <circle
       transform="translate(-72.811788,-1.2397749e-8)"
       d="m 141.309,144 c 0,1.13329 -0.91871,2.052 -2.052,2.052 -1.13328,0 -2.052,-0.91871 -2.052,-2.052 0,-1.13329 0.91872,-2.052 2.052,-2.052 1.13329,0 2.052,0.91871 2.052,2.052 z"
       style="fill:none;stroke:#f7bd13;stroke-width:1.22399998"
       sodipodi:ry="2.052"
       sodipodi:rx="2.052"
       sodipodi:cy="144"
       sodipodi:cx="139.257"
       id="connector132pad"
       r="2.052"
       connectorname="GND"
       cy="144"
       cx="139.257" />
    <circle
       transform="translate(-72.811788,-1.2397749e-8)"
       d="m 148.509,144 c 0,1.13329 -0.91871,2.052 -2.052,2.052 -1.13329,0 -2.052,-0.91871 -2.052,-2.052 0,-1.13329 0.91871,-2.052 2.052,-2.052 1.13329,0 2.052,0.91871 2.052,2.052 z"
       style="fill:none;stroke:#f7bd13;stroke-width:1.22399998"
       sodipodi:ry="2.052"
       sodipodi:rx="2.052"
       sodipodi:cy="144"
       sodipodi:cx="146.457"
       id="connector133pad"
       r="2.052"
       connectorname="VIN"
       cy="144"
       cx="146.457" />
    <circle
       transform="translate(-72.811788,-1.2397749e-8)"
       d="m 162.90899,144 c 0,1.13329 -0.91871,2.052 -2.052,2.052 -1.13328,0 -2.052,-0.91871 -2.052,-2.052 0,-1.13329 0.91872,-2.052 2.052,-2.052 1.13329,0 2.052,0.91871 2.052,2.052 z"
       style="fill:none;stroke:#f7bd13;stroke-width:1.22399998"
       sodipodi:ry="2.052"
       sodipodi:rx="2.052"
       sodipodi:cy="144"
       sodipodi:cx="160.85699"
       id="connector0pad"
       r="2.052"
       connectorname="AD0"
       cy="144"
       cx="160.85699" />
  </g>
</svg>
