<?xml version="1.0" encoding="UTF-8" standalone="no"?>
<!-- Created with Inkscape (http://www.inkscape.org/) -->

<svg
   xmlns:dc="http://purl.org/dc/elements/1.1/"
   xmlns:cc="http://creativecommons.org/ns#"
   xmlns:rdf="http://www.w3.org/1999/02/22-rdf-syntax-ns#"
   xmlns:svg="http://www.w3.org/2000/svg"
   xmlns="http://www.w3.org/2000/svg"
   xmlns:sodipodi="http://sodipodi.sourceforge.net/DTD/sodipodi-0.dtd"
   xmlns:inkscape="http://www.inkscape.org/namespaces/inkscape"
   width="8.8582668"
   height="147.04724"
   id="svg6157"
   version="1.1"
   inkscape:version="0.48.2 r9819"
   sodipodi:docname="Header_8pins_board.svg">
  <defs
     id="defs6159" />
  <sodipodi:namedview
     id="base"
     pagecolor="#ffffff"
     bordercolor="#ffffff"
     borderopacity="0.0"
     inkscape:pageopacity="0.0"
     inkscape:pageshadow="0"
     inkscape:zoom="5.62563"
     inkscape:cx="36.248197"
     inkscape:cy="51.821258"
     inkscape:document-units="px"
     inkscape:current-layer="layer1"
     showgrid="false"
     fit-margin-top="0"
     fit-margin-left="0"
     fit-margin-right="0"
     fit-margin-bottom="0"
     inkscape:window-width="1316"
     inkscape:window-height="816"
     inkscape:window-x="88"
     inkscape:window-y="37"
     inkscape:window-maximized="0" />
  <metadata
     id="metadata6162">
    <rdf:RDF>
      <cc:Work
         rdf:about="">
        <dc:format>image/svg+xml</dc:format>
        <dc:type
           rdf:resource="http://purl.org/dc/dcmitype/StillImage" />
        <dc:title></dc:title>
      </cc:Work>
    </rdf:RDF>
  </metadata>
  <g
     inkscape:label="Layer 1"
     inkscape:groupmode="layer"
     id="layer1"
     transform="translate(0,-905.31493)">
    <g
       id="g3107">
      <rect
         y="981.68921"
         x="0.19318032"
         height="70.479782"
         width="8.4719067"
         id="rect6165"
         style="fill:none;stroke:#000000;stroke-width:0.38636065;stroke-linecap:butt;stroke-linejoin:miter;stroke-miterlimit:4;stroke-opacity:1;stroke-dasharray:none" />
      <g
         id="g3097">
        <rect
           style="fill:none;stroke:#000000;stroke-width:0.34406543;stroke-linecap:butt;stroke-linejoin:miter;stroke-miterlimit:4;stroke-opacity:1;stroke-dasharray:none"
           id="rect6977"
           width="6.7425485"
           height="6.7425489"
           x="1.0578595"
           y="1044.5618" />
        <rect
           y="1035.7035"
           x="1.0578595"
           height="6.7425489"
           width="6.7425485"
           id="rect6979"
           style="fill:none;stroke:#000000;stroke-width:0.34406543;stroke-linecap:butt;stroke-linejoin:miter;stroke-miterlimit:4;stroke-opacity:1;stroke-dasharray:none" />
        <rect
           style="fill:none;stroke:#000000;stroke-width:0.34406543;stroke-linecap:butt;stroke-linejoin:miter;stroke-miterlimit:4;stroke-opacity:1;stroke-dasharray:none"
           id="rect6981"
           width="6.7425485"
           height="6.7425489"
           x="1.0578595"
           y="1026.8452" />
        <rect
           y="1017.987"
           x="1.0578595"
           height="6.7425489"
           width="6.7425485"
           id="rect6983"
           style="fill:none;stroke:#000000;stroke-width:0.34406543;stroke-linecap:butt;stroke-linejoin:miter;stroke-miterlimit:4;stroke-opacity:1;stroke-dasharray:none" />
        <rect
           style="fill:none;stroke:#000000;stroke-width:0.34406543;stroke-linecap:butt;stroke-linejoin:miter;stroke-miterlimit:4;stroke-opacity:1;stroke-dasharray:none"
           id="rect6985"
           width="6.7425485"
           height="6.7425489"
           x="1.0578595"
           y="1009.1286" />
        <rect
           y="1000.2704"
           x="1.0578595"
           height="6.7425489"
           width="6.7425485"
           id="rect6987"
           style="fill:none;stroke:#000000;stroke-width:0.34406543;stroke-linecap:butt;stroke-linejoin:miter;stroke-miterlimit:4;stroke-opacity:1;stroke-dasharray:none" />
        <rect
           style="fill:none;stroke:#000000;stroke-width:0.34406543;stroke-linecap:butt;stroke-linejoin:miter;stroke-miterlimit:4;stroke-opacity:1;stroke-dasharray:none"
           id="rect3014"
           width="6.7425485"
           height="6.7425489"
           x="1.0578595"
           y="991.41217" />
        <rect
           y="982.55389"
           x="1.0578595"
           height="6.7425489"
           width="6.7425485"
           id="rect3016"
           style="fill:none;stroke:#000000;stroke-width:0.34406543;stroke-linecap:butt;stroke-linejoin:miter;stroke-miterlimit:4;stroke-opacity:1;stroke-dasharray:none" />
      </g>
    </g>
    <g
       id="g3067"
       transform="translate(0,-2.1811015)">
      <rect
         style="fill:none;stroke:#000000;stroke-width:0.38636065;stroke-linecap:butt;stroke-linejoin:miter;stroke-miterlimit:4;stroke-opacity:1;stroke-dasharray:none"
         id="rect3021"
         width="8.4719067"
         height="70.479782"
         x="0.19318032"
         y="907.68921" />
      <g
         id="g3057">
        <rect
           y="970.56177"
           x="1.0578595"
           height="6.7425489"
           width="6.7425485"
           id="rect3023"
           style="fill:none;stroke:#000000;stroke-width:0.34406543;stroke-linecap:butt;stroke-linejoin:miter;stroke-miterlimit:4;stroke-opacity:1;stroke-dasharray:none" />
        <rect
           style="fill:none;stroke:#000000;stroke-width:0.34406543;stroke-linecap:butt;stroke-linejoin:miter;stroke-miterlimit:4;stroke-opacity:1;stroke-dasharray:none"
           id="rect3025"
           width="6.7425485"
           height="6.7425489"
           x="1.0578595"
           y="961.70349" />
        <rect
           y="952.84521"
           x="1.0578595"
           height="6.7425489"
           width="6.7425485"
           id="rect3027"
           style="fill:none;stroke:#000000;stroke-width:0.34406543;stroke-linecap:butt;stroke-linejoin:miter;stroke-miterlimit:4;stroke-opacity:1;stroke-dasharray:none" />
        <rect
           style="fill:none;stroke:#000000;stroke-width:0.34406543;stroke-linecap:butt;stroke-linejoin:miter;stroke-miterlimit:4;stroke-opacity:1;stroke-dasharray:none"
           id="rect3029"
           width="6.7425485"
           height="6.7425489"
           x="1.0578595"
           y="943.987" />
        <rect
           y="935.1286"
           x="1.0578595"
           height="6.7425489"
           width="6.7425485"
           id="rect3031"
           style="fill:none;stroke:#000000;stroke-width:0.34406543;stroke-linecap:butt;stroke-linejoin:miter;stroke-miterlimit:4;stroke-opacity:1;stroke-dasharray:none" />
        <rect
           style="fill:none;stroke:#000000;stroke-width:0.34406543;stroke-linecap:butt;stroke-linejoin:miter;stroke-miterlimit:4;stroke-opacity:1;stroke-dasharray:none"
           id="rect3033"
           width="6.7425485"
           height="6.7425489"
           x="1.0578595"
           y="926.27039" />
        <rect
           y="917.41217"
           x="1.0578595"
           height="6.7425489"
           width="6.7425485"
           id="rect3035"
           style="fill:none;stroke:#000000;stroke-width:0.34406543;stroke-linecap:butt;stroke-linejoin:miter;stroke-miterlimit:4;stroke-opacity:1;stroke-dasharray:none" />
        <rect
           style="fill:none;stroke:#000000;stroke-width:0.34406543;stroke-linecap:butt;stroke-linejoin:miter;stroke-miterlimit:4;stroke-opacity:1;stroke-dasharray:none"
           id="rect3037"
           width="6.7425485"
           height="6.7425489"
           x="1.0578595"
           y="908.55389" />
      </g>
    </g>
    <g
       id="copper1"
       inkscape:label="#g3119">
      <g
         id="g3087">
        <path
           sodipodi:type="arc"
           style="fill:#9a916c;fill-opacity:1;stroke:#000000;stroke-width:0.35433072;stroke-linecap:butt;stroke-linejoin:miter;stroke-miterlimit:4;stroke-opacity:1;stroke-dasharray:none"
           id="path7039"
           sodipodi:cx="4.3550677"
           sodipodi:cy="4.6217051"
           sodipodi:rx="2.6663682"
           sodipodi:ry="2.6663682"
           d="m 7.021436,4.6217051 c 0,1.4725945 -1.1937738,2.6663682 -2.6663683,2.6663682 -1.4725945,0 -2.6663682,-1.1937737 -2.6663682,-2.6663682 0,-1.4725946 1.1937737,-2.6663683 2.6663682,-2.6663683 1.4725945,0 2.6663683,1.1937737 2.6663683,2.6663683 z"
           transform="matrix(0.93456969,0,0,0.93456969,0.35901957,999.25664)" />
        <path
           transform="matrix(0.93456969,0,0,0.93456969,0.35901957,1008.1807)"
           d="m 7.021436,4.6217051 c 0,1.4725945 -1.1937738,2.6663682 -2.6663683,2.6663682 -1.4725945,0 -2.6663682,-1.1937737 -2.6663682,-2.6663682 0,-1.4725946 1.1937737,-2.6663683 2.6663682,-2.6663683 1.4725945,0 2.6663683,1.1937737 2.6663683,2.6663683 z"
           sodipodi:ry="2.6663682"
           sodipodi:rx="2.6663682"
           sodipodi:cy="4.6217051"
           sodipodi:cx="4.3550677"
           id="path7041"
           style="fill:#9a916c;fill-opacity:1;stroke:#000000;stroke-width:0.35433072;stroke-linecap:butt;stroke-linejoin:miter;stroke-miterlimit:4;stroke-opacity:1;stroke-dasharray:none"
           sodipodi:type="arc" />
        <path
           sodipodi:type="arc"
           style="fill:#9a916c;fill-opacity:1;stroke:#000000;stroke-width:0.35433072;stroke-linecap:butt;stroke-linejoin:miter;stroke-miterlimit:4;stroke-opacity:1;stroke-dasharray:none"
           id="path7043"
           sodipodi:cx="4.3550677"
           sodipodi:cy="4.6217051"
           sodipodi:rx="2.6663682"
           sodipodi:ry="2.6663682"
           d="m 7.021436,4.6217051 c 0,1.4725945 -1.1937738,2.6663682 -2.6663683,2.6663682 -1.4725945,0 -2.6663682,-1.1937737 -2.6663682,-2.6663682 0,-1.4725946 1.1937737,-2.6663683 2.6663682,-2.6663683 1.4725945,0 2.6663683,1.1937737 2.6663683,2.6663683 z"
           transform="matrix(0.93456969,0,0,0.93456969,0.35901957,1017.0389)" />
        <path
           transform="matrix(0.93456969,0,0,0.93456969,0.35901957,1025.8972)"
           d="m 7.021436,4.6217051 c 0,1.4725945 -1.1937738,2.6663682 -2.6663683,2.6663682 -1.4725945,0 -2.6663682,-1.1937737 -2.6663682,-2.6663682 0,-1.4725946 1.1937737,-2.6663683 2.6663682,-2.6663683 1.4725945,0 2.6663683,1.1937737 2.6663683,2.6663683 z"
           sodipodi:ry="2.6663682"
           sodipodi:rx="2.6663682"
           sodipodi:cy="4.6217051"
           sodipodi:cx="4.3550677"
           id="path7045"
           style="fill:#9a916c;fill-opacity:1;stroke:#000000;stroke-width:0.35433072;stroke-linecap:butt;stroke-linejoin:miter;stroke-miterlimit:4;stroke-opacity:1;stroke-dasharray:none"
           sodipodi:type="arc" />
        <path
           sodipodi:type="arc"
           style="fill:#9a916c;fill-opacity:1;stroke:#000000;stroke-width:0.35433072;stroke-linecap:butt;stroke-linejoin:miter;stroke-miterlimit:4;stroke-opacity:1;stroke-dasharray:none"
           id="path7047"
           sodipodi:cx="4.3550677"
           sodipodi:cy="4.6217051"
           sodipodi:rx="2.6663682"
           sodipodi:ry="2.6663682"
           d="m 7.021436,4.6217051 c 0,1.4725945 -1.1937738,2.6663682 -2.6663683,2.6663682 -1.4725945,0 -2.6663682,-1.1937737 -2.6663682,-2.6663682 0,-1.4725946 1.1937737,-2.6663683 2.6663682,-2.6663683 1.4725945,0 2.6663683,1.1937737 2.6663683,2.6663683 z"
           transform="matrix(0.93456969,0,0,0.93456969,0.35901957,1034.7555)" />
        <path
           transform="matrix(0.93456969,0,0,0.93456969,0.35901957,1043.6137)"
           d="m 7.021436,4.6217051 c 0,1.4725945 -1.1937738,2.6663682 -2.6663683,2.6663682 -1.4725945,0 -2.6663682,-1.1937737 -2.6663682,-2.6663682 0,-1.4725946 1.1937737,-2.6663683 2.6663682,-2.6663683 1.4725945,0 2.6663683,1.1937737 2.6663683,2.6663683 z"
           sodipodi:ry="2.6663682"
           sodipodi:rx="2.6663682"
           sodipodi:cy="4.6217051"
           sodipodi:cx="4.3550677"
           id="path7049"
           style="fill:#9a916c;fill-opacity:1;stroke:#000000;stroke-width:0.35433072;stroke-linecap:butt;stroke-linejoin:miter;stroke-miterlimit:4;stroke-opacity:1;stroke-dasharray:none"
           sodipodi:type="arc" />
        <path
           transform="matrix(0.93456969,0,0,0.93456969,0.35901957,981.60587)"
           d="m 7.021436,4.6217051 c 0,1.4725945 -1.1937738,2.6663682 -2.6663683,2.6663682 -1.4725945,0 -2.6663682,-1.1937737 -2.6663682,-2.6663682 0,-1.4725946 1.1937737,-2.6663683 2.6663682,-2.6663683 1.4725945,0 2.6663683,1.1937737 2.6663683,2.6663683 z"
           sodipodi:ry="2.6663682"
           sodipodi:rx="2.6663682"
           sodipodi:cy="4.6217051"
           sodipodi:cx="4.3550677"
           id="path3010"
           style="fill:#9a916c;fill-opacity:1;stroke:#000000;stroke-width:0.35433072;stroke-linecap:butt;stroke-linejoin:miter;stroke-miterlimit:4;stroke-opacity:1;stroke-dasharray:none"
           sodipodi:type="arc" />
        <path
           sodipodi:type="arc"
           style="fill:#9a916c;fill-opacity:1;stroke:#000000;stroke-width:0.35433072;stroke-linecap:butt;stroke-linejoin:miter;stroke-miterlimit:4;stroke-opacity:1;stroke-dasharray:none"
           id="path3012"
           sodipodi:cx="4.3550677"
           sodipodi:cy="4.6217051"
           sodipodi:rx="2.6663682"
           sodipodi:ry="2.6663682"
           d="m 7.021436,4.6217051 c 0,1.4725945 -1.1937738,2.6663682 -2.6663683,2.6663682 -1.4725945,0 -2.6663682,-1.1937737 -2.6663682,-2.6663682 0,-1.4725946 1.1937737,-2.6663683 2.6663682,-2.6663683 1.4725945,0 2.6663683,1.1937737 2.6663683,2.6663683 z"
           transform="matrix(0.93456969,0,0,0.93456969,0.35901957,990.46414)" />
      </g>
      <g
         transform="translate(0,-76.181069)"
         id="g3001"
         inkscape:label="#g3018">
        <path
           transform="matrix(0.93456969,0,0,0.93456969,0.35901957,999.25664)"
           d="m 7.021436,4.6217051 c 0,1.4725945 -1.1937738,2.6663682 -2.6663683,2.6663682 -1.4725945,0 -2.6663682,-1.1937737 -2.6663682,-2.6663682 0,-1.4725946 1.1937737,-2.6663683 2.6663682,-2.6663683 1.4725945,0 2.6663683,1.1937737 2.6663683,2.6663683 z"
           sodipodi:ry="2.6663682"
           sodipodi:rx="2.6663682"
           sodipodi:cy="4.6217051"
           sodipodi:cx="4.3550677"
           id="path3003"
           style="fill:#9a916c;fill-opacity:1;stroke:#000000;stroke-width:0.35433072;stroke-linecap:butt;stroke-linejoin:miter;stroke-miterlimit:4;stroke-opacity:1;stroke-dasharray:none"
           sodipodi:type="arc" />
        <path
           sodipodi:type="arc"
           style="fill:#9a916c;fill-opacity:1;stroke:#000000;stroke-width:0.35433072;stroke-linecap:butt;stroke-linejoin:miter;stroke-miterlimit:4;stroke-opacity:1;stroke-dasharray:none"
           id="path3005"
           sodipodi:cx="4.3550677"
           sodipodi:cy="4.6217051"
           sodipodi:rx="2.6663682"
           sodipodi:ry="2.6663682"
           d="m 7.021436,4.6217051 c 0,1.4725945 -1.1937738,2.6663682 -2.6663683,2.6663682 -1.4725945,0 -2.6663682,-1.1937737 -2.6663682,-2.6663682 0,-1.4725946 1.1937737,-2.6663683 2.6663682,-2.6663683 1.4725945,0 2.6663683,1.1937737 2.6663683,2.6663683 z"
           transform="matrix(0.93456969,0,0,0.93456969,0.35901957,1008.1807)" />
        <path
           transform="matrix(0.93456969,0,0,0.93456969,0.35901957,1017.0389)"
           d="m 7.021436,4.6217051 c 0,1.4725945 -1.1937738,2.6663682 -2.6663683,2.6663682 -1.4725945,0 -2.6663682,-1.1937737 -2.6663682,-2.6663682 0,-1.4725946 1.1937737,-2.6663683 2.6663682,-2.6663683 1.4725945,0 2.6663683,1.1937737 2.6663683,2.6663683 z"
           sodipodi:ry="2.6663682"
           sodipodi:rx="2.6663682"
           sodipodi:cy="4.6217051"
           sodipodi:cx="4.3550677"
           id="path3007"
           style="fill:#9a916c;fill-opacity:1;stroke:#000000;stroke-width:0.35433072;stroke-linecap:butt;stroke-linejoin:miter;stroke-miterlimit:4;stroke-opacity:1;stroke-dasharray:none"
           sodipodi:type="arc" />
        <path
           sodipodi:type="arc"
           style="fill:#9a916c;fill-opacity:1;stroke:#000000;stroke-width:0.35433072;stroke-linecap:butt;stroke-linejoin:miter;stroke-miterlimit:4;stroke-opacity:1;stroke-dasharray:none"
           id="path3009"
           sodipodi:cx="4.3550677"
           sodipodi:cy="4.6217051"
           sodipodi:rx="2.6663682"
           sodipodi:ry="2.6663682"
           d="m 7.021436,4.6217051 c 0,1.4725945 -1.1937738,2.6663682 -2.6663683,2.6663682 -1.4725945,0 -2.6663682,-1.1937737 -2.6663682,-2.6663682 0,-1.4725946 1.1937737,-2.6663683 2.6663682,-2.6663683 1.4725945,0 2.6663683,1.1937737 2.6663683,2.6663683 z"
           transform="matrix(0.93456969,0,0,0.93456969,0.35901957,1025.8972)" />
        <path
           transform="matrix(0.93456969,0,0,0.93456969,0.35901957,1034.7555)"
           d="m 7.021436,4.6217051 c 0,1.4725945 -1.1937738,2.6663682 -2.6663683,2.6663682 -1.4725945,0 -2.6663682,-1.1937737 -2.6663682,-2.6663682 0,-1.4725946 1.1937737,-2.6663683 2.6663682,-2.6663683 1.4725945,0 2.6663683,1.1937737 2.6663683,2.6663683 z"
           sodipodi:ry="2.6663682"
           sodipodi:rx="2.6663682"
           sodipodi:cy="4.6217051"
           sodipodi:cx="4.3550677"
           id="path3011"
           style="fill:#9a916c;fill-opacity:1;stroke:#000000;stroke-width:0.35433072;stroke-linecap:butt;stroke-linejoin:miter;stroke-miterlimit:4;stroke-opacity:1;stroke-dasharray:none"
           sodipodi:type="arc" />
        <path
           sodipodi:type="arc"
           style="fill:#9a916c;fill-opacity:1;stroke:#000000;stroke-width:0.35433072;stroke-linecap:butt;stroke-linejoin:miter;stroke-miterlimit:4;stroke-opacity:1;stroke-dasharray:none"
           id="path3013"
           sodipodi:cx="4.3550677"
           sodipodi:cy="4.6217051"
           sodipodi:rx="2.6663682"
           sodipodi:ry="2.6663682"
           d="m 7.021436,4.6217051 c 0,1.4725945 -1.1937738,2.6663682 -2.6663683,2.6663682 -1.4725945,0 -2.6663682,-1.1937737 -2.6663682,-2.6663682 0,-1.4725946 1.1937737,-2.6663683 2.6663682,-2.6663683 1.4725945,0 2.6663683,1.1937737 2.6663683,2.6663683 z"
           transform="matrix(0.93456969,0,0,0.93456969,0.35901957,1043.6137)" />
        <path
           sodipodi:type="arc"
           style="fill:#9a916c;fill-opacity:1;stroke:#000000;stroke-width:0.35433072;stroke-linecap:butt;stroke-linejoin:miter;stroke-miterlimit:4;stroke-opacity:1;stroke-dasharray:none"
           id="path3015"
           sodipodi:cx="4.3550677"
           sodipodi:cy="4.6217051"
           sodipodi:rx="2.6663682"
           sodipodi:ry="2.6663682"
           d="m 7.021436,4.6217051 c 0,1.4725945 -1.1937738,2.6663682 -2.6663683,2.6663682 -1.4725945,0 -2.6663682,-1.1937737 -2.6663682,-2.6663682 0,-1.4725946 1.1937737,-2.6663683 2.6663682,-2.6663683 1.4725945,0 2.6663683,1.1937737 2.6663683,2.6663683 z"
           transform="matrix(0.93456969,0,0,0.93456969,0.35901957,981.60587)" />
        <path
           transform="matrix(0.93456969,0,0,0.93456969,0.35901957,990.46414)"
           d="m 7.021436,4.6217051 c 0,1.4725945 -1.1937738,2.6663682 -2.6663683,2.6663682 -1.4725945,0 -2.6663682,-1.1937737 -2.6663682,-2.6663682 0,-1.4725946 1.1937737,-2.6663683 2.6663682,-2.6663683 1.4725945,0 2.6663683,1.1937737 2.6663683,2.6663683 z"
           sodipodi:ry="2.6663682"
           sodipodi:rx="2.6663682"
           sodipodi:cy="4.6217051"
           sodipodi:cx="4.3550677"
           id="path3017"
           style="fill:#9a916c;fill-opacity:1;stroke:#000000;stroke-width:0.35433072;stroke-linecap:butt;stroke-linejoin:miter;stroke-miterlimit:4;stroke-opacity:1;stroke-dasharray:none"
           sodipodi:type="arc" />
      </g>
    </g>
  </g>
</svg>
