<?xml version="1.0" encoding="UTF-8" standalone="no"?>
<!-- Created with Inkscape (http://www.inkscape.org/) -->

<svg
   xmlns:dc="http://purl.org/dc/elements/1.1/"
   xmlns:cc="http://creativecommons.org/ns#"
   xmlns:rdf="http://www.w3.org/1999/02/22-rdf-syntax-ns#"
   xmlns:svg="http://www.w3.org/2000/svg"
   xmlns="http://www.w3.org/2000/svg"
   xmlns:sodipodi="http://sodipodi.sourceforge.net/DTD/sodipodi-0.dtd"
   xmlns:inkscape="http://www.inkscape.org/namespaces/inkscape"
   width="5.3149605"
   height="50.31496"
   id="svg2985"
   version="1.1"
   inkscape:version="0.48.2 r9819"
   sodipodi:docname="headers6.svg">
  <defs
     id="defs2987" />
  <sodipodi:namedview
     id="base"
     pagecolor="#ffffff"
     bordercolor="#ffffff"
     borderopacity="0.0"
     inkscape:pageopacity="0.0"
     inkscape:pageshadow="0"
     inkscape:zoom="10.915154"
     inkscape:cx="25.388418"
     inkscape:cy="27.000136"
     inkscape:document-units="px"
     inkscape:current-layer="layer1"
     showgrid="false"
     fit-margin-top="0"
     fit-margin-left="0"
     fit-margin-right="0"
     fit-margin-bottom="0"
     inkscape:window-width="1431"
     inkscape:window-height="843"
     inkscape:window-x="53"
     inkscape:window-y="23"
     inkscape:window-maximized="0" />
  <metadata
     id="metadata2990">
    <rdf:RDF>
      <cc:Work
         rdf:about="">
        <dc:format>image/svg+xml</dc:format>
        <dc:type
           rdf:resource="http://purl.org/dc/dcmitype/StillImage" />
        <dc:title />
      </cc:Work>
    </rdf:RDF>
  </metadata>
  <g
     inkscape:label="Layer 1"
     inkscape:groupmode="layer"
     id="layer1"
     transform="translate(1.8970534e-8,-1047.0472)">
    <g
       id="copper1"
       inkscape:label="#g10070">
      <path
         transform="matrix(0.89487402,0,0,0.89487402,1.3285514,108.70403)"
         d="m 3.6631128,1051.5454 c 0,1.2029 -0.9751538,2.1781 -2.178067,2.1781 -1.20291318,0 -2.17806698,-0.9752 -2.17806698,-2.1781 0,-1.2029 0.9751538,-2.1781 2.17806698,-2.1781 1.2029132,0 2.178067,0.9752 2.178067,2.1781 z"
         sodipodi:ry="2.178067"
         sodipodi:rx="2.178067"
         sodipodi:cy="1051.5454"
         sodipodi:cx="1.4850458"
         id="path7512"
         style="fill:none;stroke:#f7bd13;stroke-width:1.58320558;stroke-linecap:butt;stroke-linejoin:miter;stroke-miterlimit:4;stroke-opacity:1;stroke-dasharray:none"
         sodipodi:type="arc" />
      <path
         sodipodi:type="arc"
         style="fill:none;stroke:#f7bd13;stroke-width:1.58320558;stroke-linecap:butt;stroke-linejoin:miter;stroke-miterlimit:4;stroke-opacity:1;stroke-dasharray:none"
         id="path7514"
         sodipodi:cx="1.4850458"
         sodipodi:cy="1051.5454"
         sodipodi:rx="2.178067"
         sodipodi:ry="2.178067"
         d="m 3.6631128,1051.5454 c 0,1.2029 -0.9751538,2.1781 -2.178067,2.1781 -1.20291318,0 -2.17806698,-0.9752 -2.17806698,-2.1781 0,-1.2029 0.9751538,-2.1781 2.17806698,-2.1781 1.2029132,0 2.178067,0.9752 2.178067,2.1781 z"
         transform="matrix(0.89487402,0,0,0.89487402,1.3285514,117.70403)" />
      <path
         sodipodi:type="arc"
         style="fill:none;stroke:#f7bd13;stroke-width:1.58320558;stroke-linecap:butt;stroke-linejoin:miter;stroke-miterlimit:4;stroke-opacity:1;stroke-dasharray:none"
         id="path7518"
         sodipodi:cx="1.4850458"
         sodipodi:cy="1051.5454"
         sodipodi:rx="2.178067"
         sodipodi:ry="2.178067"
         d="m 3.6631128,1051.5454 c 0,1.2029 -0.9751538,2.1781 -2.178067,2.1781 -1.20291318,0 -2.17806698,-0.9752 -2.17806698,-2.1781 0,-1.2029 0.9751538,-2.1781 2.17806698,-2.1781 1.2029132,0 2.178067,0.9752 2.178067,2.1781 z"
         transform="matrix(0.89487402,0,0,0.89487402,1.3285514,126.70403)" />
      <path
         transform="matrix(0.89487402,0,0,0.89487402,1.3285514,135.70403)"
         d="m 3.6631128,1051.5454 c 0,1.2029 -0.9751538,2.1781 -2.178067,2.1781 -1.20291318,0 -2.17806698,-0.9752 -2.17806698,-2.1781 0,-1.2029 0.9751538,-2.1781 2.17806698,-2.1781 1.2029132,0 2.178067,0.9752 2.178067,2.1781 z"
         sodipodi:ry="2.178067"
         sodipodi:rx="2.178067"
         sodipodi:cy="1051.5454"
         sodipodi:cx="1.4850458"
         id="path7520"
         style="fill:none;stroke:#f7bd13;stroke-width:1.58320558;stroke-linecap:butt;stroke-linejoin:miter;stroke-miterlimit:4;stroke-opacity:1;stroke-dasharray:none"
         sodipodi:type="arc" />
      <path
         transform="matrix(0.89487402,0,0,0.89487402,1.3285514,144.70403)"
         d="m 3.6631128,1051.5454 c 0,1.2029 -0.9751538,2.1781 -2.178067,2.1781 -1.20291318,0 -2.17806698,-0.9752 -2.17806698,-2.1781 0,-1.2029 0.9751538,-2.1781 2.17806698,-2.1781 1.2029132,0 2.178067,0.9752 2.178067,2.1781 z"
         sodipodi:ry="2.178067"
         sodipodi:rx="2.178067"
         sodipodi:cy="1051.5454"
         sodipodi:cx="1.4850458"
         id="path7522"
         style="fill:none;stroke:#f7bd13;stroke-width:1.58320558;stroke-linecap:butt;stroke-linejoin:miter;stroke-miterlimit:4;stroke-opacity:1;stroke-dasharray:none"
         sodipodi:type="arc" />
      <path
         sodipodi:type="arc"
         style="fill:none;stroke:#f7bd13;stroke-width:1.58320558;stroke-linecap:butt;stroke-linejoin:miter;stroke-miterlimit:4;stroke-opacity:1;stroke-dasharray:none"
         id="path7524"
         sodipodi:cx="1.4850458"
         sodipodi:cy="1051.5454"
         sodipodi:rx="2.178067"
         sodipodi:ry="2.178067"
         d="m 3.6631128,1051.5454 c 0,1.2029 -0.9751538,2.1781 -2.178067,2.1781 -1.20291318,0 -2.17806698,-0.9752 -2.17806698,-2.1781 0,-1.2029 0.9751538,-2.1781 2.17806698,-2.1781 1.2029132,0 2.178067,0.9752 2.178067,2.1781 z"
         transform="matrix(0.89487402,0,0,0.89487402,1.3285514,153.70403)" />
    </g>
  </g>
</svg>
